# xmcd
#
# Track frame offsets:
#	150
#	19645
#	35729
#	50449
#	67324
#	79318
#	93136
#	106729
#	123954
#	140130
#	160435
#	175719
#	195408
#	212927
#	230081
#	244160
#	263499
#	279689
#	294462
#	310982
#	324741
#	342339
#
# Disc length: 4769
#
# Revision: 1
# Processed by: cddbd v1.5.1PL0 Copyright (c) Steve Scherf et al.
# Submitted via: FreeRIP 2.35 
# Normalized: r0:DSETVAR1,TDELIM( - )
#
DISCID=4d129f16
DTITLE=Various Artist - COUNTRY BACKGROUND VOL. 1
DYEAR=2003
DGENRE=Country
TTITLE0=GARTH BROOKS - FREINDS IN LOW PLACES
TTITLE1=CHARLEY DANIELS BAND - DEVIL WENT DOWN TO GEORGIA
TTITLE2=CLEDUS T JUDD - CLEDUS WENT DOWN TO FLORIDA
TTITLE3=TRACE ADKINS - THIS AIN'T NO THINKIN THING
TTITLE4=YANKEE GREY - ALL THINGS CONSIDERED
TTITLE5=ANDY GRIGGS - I'LL GO CRAZY
TTITLE6=TIM MCGRAW - SOMETHING LIKE THAT
TTITLE7=DIXIE CHICKS - READY TO RUN
TTITLE8=KENNY CHESNEY - SHE THINKS MY TRACTOR'S SEXY
TTITLE9=TRACY BYRD - PUT YOUR HAND IN MINE
TTITLE10=TOBY KEITH - HOW DO YOU LIKE ME NOW?
TTITLE11=SHANIA TWAIN - ROCK THIS COUNTRY
TTITLE12=TRISHA YEARWOOD - REAL LIVE WOMAN
TTITLE13=CLINT BLACK AND STEVE WARINER - BEEN THERE
TTITLE14=FAITH HILL - THE WAY YOU LOVE ME
TTITLE15=DIXIE CHICKS - GOODBYE EARL
TTITLE16=RASCAL FLATTS - PRAYIN' FOR DAYLIGHT
TTITLE17=ERIC HEATHERLY - FLOWERS ON THE WALL
TTITLE18=SHEDAISY - I WILL BUT
TTITLE19=SHANIA TWAIN - NO ONE NEEDS TO KNOW
TTITLE20=SHANIA TWAIN - MAN I FEEL LIKE A WOMAN
TTITLE21=DIXIE CHICKS - TONIGHT THE HEARTACHES'S ON ME
EXTD=
EXTT0=
EXTT1=
EXTT2=
EXTT3=
EXTT4=
EXTT5=
EXTT6=
EXTT7=
EXTT8=
EXTT9=
EXTT10=
EXTT11=
EXTT12=
EXTT13=
EXTT14=
EXTT15=
EXTT16=
EXTT17=
EXTT18=
EXTT19=
EXTT20=
EXTT21=
PLAYORDER=
